<svg xmlns="http://www.w3.org/2000/svg" viewBox="0 0 280 200" fill="none" aria-hidden="true">
  <rect width="280" height="200" rx="16" fill="#EFF6FF"/>
  <ellipse cx="140" cy="178" rx="100" ry="14" fill="#BFDBFE" opacity="0.6"/>
  <!-- backpack -->
  <path d="M178 118v38c0 6-5 11-11 11h-54c-6 0-11-5-11-11v-38" stroke="#2563EB" stroke-width="3" stroke-linecap="round" fill="#93C5FD"/>
  <path d="M102 118h76" stroke="#2563EB" stroke-width="3" stroke-linecap="round"/>
  <circle cx="140" cy="100" r="28" fill="#FDE68A" stroke="#2563EB" stroke-width="2.5"/>
  <!-- face -->
  <circle cx="130" cy="96" r="3" fill="#1E3A5F"/>
  <circle cx="150" cy="96" r="3" fill="#1E3A5F"/>
  <path d="M132 108q8 6 16 0" stroke="#1E3A5F" stroke-width="2" stroke-linecap="round"/>
  <!-- book -->
  <rect x="68" y="88" width="36" height="44" rx="4" fill="#FFFFFF" stroke="#2563EB" stroke-width="2"/>
  <line x1="86" y1="92" x2="86" y2="128" stroke="#60A5FA" stroke-width="2"/>
  <rect x="176" y="92" width="36" height="40" rx="4" fill="#DBEAFE" stroke="#2563EB" stroke-width="2"/>
  <!-- cap -->
  <path d="M118 78c0-12 10-22 22-22s22 10 22 22v6h-44v-6z" fill="#2563EB"/>
  <ellipse cx="140" cy="78" rx="26" ry="8" fill="#1D4ED8"/>
</svg>
